<svg width="34" height="34" viewBox="0 0 34 34" fill="none" xmlns="http://www.w3.org/2000/svg">
<path d="M27.667 0.333496C30.9807 0.333496 33.667 3.01979 33.667 6.3335V27.6665C33.667 30.9802 30.9807 33.6665 27.667 33.6665H6.33398C3.02028 33.6665 0.333984 30.9802 0.333984 27.6665V6.3335C0.333984 3.01979 3.02028 0.333496 6.33398 0.333496H27.667ZM17.001 9.5835C16.5868 9.5835 16.251 9.91928 16.251 10.3335V16.2505H10.3359C9.92172 16.2505 9.58594 16.5863 9.58594 17.0005C9.5862 17.4145 9.92189 17.7505 10.3359 17.7505H16.251V23.6665C16.251 24.0807 16.5868 24.4165 17.001 24.4165C17.415 24.4163 17.751 24.0806 17.751 23.6665V17.7505H23.6689C24.0828 17.7503 24.4187 17.4144 24.4189 17.0005C24.4189 16.5864 24.083 16.2507 23.6689 16.2505H17.751V10.3335C17.751 9.91939 17.415 9.58367 17.001 9.5835Z" fill="white"/>
</svg>
